<svg width="30" height="23" viewBox="0 0 30 23" fill="none" xmlns="http://www.w3.org/2000/svg">
<path d="M29.944 2.97454C29.8137 2.14905 29.3756 1.39512 28.7091 0.849419C28.0426 0.30372 27.1918 0.00237133 26.311 0H3.68902C2.80821 0.00237133 1.95744 0.30372 1.29094 0.849419C0.624442 1.39512 0.186333 2.14905 0.0560303 2.97454L15 12.1379L29.944 2.97454Z" fill="#F8AF00"/>
<path d="M15.543 14.0625C15.3812 14.1616 15.1927 14.2144 15 14.2144C14.8073 14.2144 14.6188 14.1616 14.457 14.0625L0 5.19858V19.2469C0.00105879 20.1737 0.39006 21.0623 1.08165 21.7176C1.77324 22.373 2.71094 22.7416 3.689 22.7426H26.311C27.2891 22.7416 28.2268 22.373 28.9183 21.7176C29.6099 21.0623 29.9989 20.1737 30 19.2469V5.19763L15.543 14.0625Z" fill="#F8AF00"/>
</svg>
