<svg width="18" height="19" viewBox="0 0 18 19" fill="none" xmlns="http://www.w3.org/2000/svg">
<path d="M17.977 17.1654L13.1626 12.351C14.3195 10.9621 14.8963 9.18071 14.7732 7.37735C14.6501 5.57398 13.8365 3.88751 12.5016 2.66875C11.1668 1.44999 9.4134 0.792781 7.6063 0.833846C5.79921 0.874911 4.07752 1.61108 2.79938 2.88922C1.52124 4.16736 0.785067 5.88905 0.744002 7.69615C0.702938 9.50324 1.36014 11.2566 2.5789 12.5915C3.79766 13.9264 5.48414 14.74 7.2875 14.8631C9.09086 14.9862 10.8723 14.4093 12.2611 13.2524L17.0755 18.0668L17.977 17.1654ZM2.03973 7.86699C2.03973 6.73224 2.37622 5.62297 3.00666 4.67945C3.6371 3.73594 4.53316 3.00056 5.58153 2.56631C6.62991 2.13206 7.78351 2.01844 8.89646 2.23982C10.0094 2.4612 11.0317 3.00763 11.8341 3.81002C12.6365 4.61242 13.1829 5.63473 13.4043 6.74768C13.6257 7.86063 13.5121 9.01423 13.0778 10.0626C12.6436 11.111 11.9082 12.007 10.9647 12.6375C10.0212 13.2679 8.9119 13.6044 7.77715 13.6044C6.25601 13.6027 4.79765 12.9977 3.72204 11.9221C2.64644 10.8465 2.04142 9.38813 2.03973 7.86699Z" fill="#58595B"/>
</svg>
