<svg id="Слой_1" data-name="Слой 1" xmlns="http://www.w3.org/2000/svg" viewBox="0 0 96.15 45.99"><defs><style>.cls-1{fill:#58595b;}.cls-2{fill:#c33;}</style></defs><path class="cls-1" d="M0,20.49V4.34H5.71a8.05,8.05,0,0,1,4.67,1.15A3.81,3.81,0,0,1,12,8.81,3.94,3.94,0,0,1,11.42,11a3.34,3.34,0,0,1-1.68,1.3,3.44,3.44,0,0,1,1.92,1.24,3.72,3.72,0,0,1,.67,2.21,4.27,4.27,0,0,1-1.49,3.56,6.9,6.9,0,0,1-4.38,1.23Zm3.84-9.41h2a2.7,2.7,0,0,0,1.79-.46,1.7,1.7,0,0,0,.54-1.36,1.79,1.79,0,0,0-.62-1.48,3,3,0,0,0-1.87-.44H3.84Zm0,2.55v3.86H6.35A2.37,2.37,0,0,0,8,17a1.66,1.66,0,0,0,.6-1.35,1.76,1.76,0,0,0-1.48-2,1.51,1.51,0,0,0-.52,0Z"/><path class="cls-1" d="M18.13,20.49H14.34V4.34h3.83Z"/><path class="cls-1" d="M29.72,4.34h3.83V20.49H29.72V10.31L24,20.49H20.17V4.34H24V14.49ZM31,0a3.06,3.06,0,0,1-1.11,2.49,4.34,4.34,0,0,1-2.94.94A4.29,4.29,0,0,1,24,2.49,3.14,3.14,0,0,1,22.86,0h2.51a1.29,1.29,0,0,0,.4,1A1.94,1.94,0,0,0,28,1a1.34,1.34,0,0,0,.4-1Z"/><path class="cls-1" d="M48.84,20.49H45V13.74H39.38v6.75H35.55V4.34h3.83v6.4H45V4.34h3.81Z"/><path class="cls-1" d="M61.11,17.49H55.86l-.92,3h-4.1L56.68,4.34h3.61l5.88,16.15H62Zm-4.34-3h3.42L58.53,8.87Z"/><path class="cls-1" d="M13.34,36.64a6,6,0,0,1-.9,3,5.44,5.44,0,0,1-2.3,2,7.6,7.6,0,0,1-3.38.7,6.23,6.23,0,0,1-4.94-2.1A8.59,8.59,0,0,1,0,34.39V33.6a9.71,9.71,0,0,1,.82-4.11,6.12,6.12,0,0,1,2.34-2.74,6.41,6.41,0,0,1,3.54-1,6.79,6.79,0,0,1,4.65,1.55,6.19,6.19,0,0,1,2,4.26H9.55a3,3,0,0,0-.74-2.13,2.89,2.89,0,0,0-2.09-.64,2.26,2.26,0,0,0-2.1,1.09,6.89,6.89,0,0,0-.71,3.46v1.15a7.8,7.8,0,0,0,.64,3.69,2.34,2.34,0,0,0,2.21,1.1,2.85,2.85,0,0,0,2-.64,2.61,2.61,0,0,0,.74-2Z"/><path class="cls-1" d="M25.65,39.09H20.38l-.92,3H15.37L21.19,26H24.8L30.65,42.1H26.57Zm-4.33-3h3.42L23,30.49Z"/><path class="cls-1" d="M46,42.1H42.13V35.36H36.49V42.1H32.65V26h3.84v6.4h5.64V26H46Z"/><path class="cls-1" d="M53.6,35.72H51.8v6.39H48V26H51.8v6.24h1.47L56.33,26H61L56.6,33.41l4.9,8.69H57Z"/><path class="cls-1" d="M63.5,26h3.81V39.11H73V26h3.85V39.14h2.45L79.09,46H75.5V42.1h-12Z"/><path class="cls-1" d="M85.13,42.1H81.31V26h3.83Z"/><path class="cls-1" d="M87.14,23.54a1.34,1.34,0,0,1,.48-1.05,1.83,1.83,0,0,1,2.35,0,1.39,1.39,0,0,1,.15,2l0,0-.12.13a1.8,1.8,0,0,1-2.35,0A1.34,1.34,0,0,1,87.14,23.54Zm6.41,18.57H89.73V26h3.82Zm-.74-18.57a1.36,1.36,0,0,1,.49-1.05,1.83,1.83,0,0,1,2.35,0,1.38,1.38,0,0,1,.18,1.94l0,.06h0l-.13.13a1.8,1.8,0,0,1-2.35,0,1.33,1.33,0,0,1-.48-1Z"/><path class="cls-2" d="M81.64,20.69c0-.23-.17-.27-.38-.24-.68.08-1.36.16-2,.2-.42,0-.68.11-.49.61a1.56,1.56,0,0,1,0,.68,1.07,1.07,0,0,1-1,1.13h-.12a7.34,7.34,0,0,1-1.23-.13c-.4-.06-.47-.21-.36-.61a13.35,13.35,0,0,0,.35-5.3c0-.27-.1-.39-.43-.33-.88.13-1.77.22-2.66.3-.27,0-.31.1-.27.36a11.06,11.06,0,0,1,0,3.25c-.17,1.18-.17,1.18-1.17.71l-2.62-1.19a.68.68,0,0,1-.42-.3,2,2,0,0,0,.4-.31,6.66,6.66,0,0,0,1.84-3.25,4,4,0,0,0-2.82-4.9,3.27,3.27,0,0,0-.45-.1,6.65,6.65,0,0,0-6.06,2.13,4,4,0,0,0-.36,5.11,6.46,6.46,0,0,0,2.08,1.95c.36.23.43.34.06.67a5.33,5.33,0,0,0-2,3.31A4.93,4.93,0,0,0,65.74,30h0A5.23,5.23,0,0,0,67,30a9.84,9.84,0,0,0,7.23-3.93.57.57,0,0,1,.73-.24,8.09,8.09,0,0,0,3.42.35A3.74,3.74,0,0,0,81.83,23,5.82,5.82,0,0,0,81.64,20.69ZM64.17,15.34a2.22,2.22,0,0,1,2-1.24A1.83,1.83,0,0,1,68,16h0a1.52,1.52,0,0,1-.06.42,4.45,4.45,0,0,1-1.48,2.18c-.12.11-.22.09-.35,0a7,7,0,0,1-1.35-.95A2,2,0,0,1,64.17,15.34Zm7.11,9.37a5.54,5.54,0,0,1-3.8,2,2.1,2.1,0,0,1-2.13-3.06,4.75,4.75,0,0,1,1.07-1.37.32.32,0,0,1,.43,0l4.35,2.1C71.39,24.45,71.44,24.52,71.28,24.71Z"/></svg>