<svg id="Слой_1" data-name="Слой 1" xmlns="http://www.w3.org/2000/svg" viewBox="0 0 108.64 47"><defs><style>.cls-1{fill:#58595b;}.cls-2{fill:#c33;}</style></defs><path class="cls-1" d="M11.84,13.79A3.37,3.37,0,0,0,9.9,12.52a3.27,3.27,0,0,0,1.71-1.35A3.94,3.94,0,0,0,12.17,9a3.93,3.93,0,0,0-1.62-3.39A8.14,8.14,0,0,0,5.81,4.44H0V20.93H6.61a7,7,0,0,0,4.45-1.24,4.4,4.4,0,0,0,1.51-3.64A3.74,3.74,0,0,0,11.84,13.79ZM3.9,7.5H5.81A3.19,3.19,0,0,1,7.66,8a1.82,1.82,0,0,1,.59,1.5,1.7,1.7,0,0,1-.54,1.38,2.88,2.88,0,0,1-1.82.48h-2Zm4.17,9.88a2.48,2.48,0,0,1-1.62.5H3.9v-4H6.61a1.8,1.8,0,0,1,2,1.55,1.93,1.93,0,0,1,0,.48A1.76,1.76,0,0,1,8.07,17.38Z"/><path class="cls-1" d="M27.8,8.05a6.53,6.53,0,0,0-2.49-2.84,7.24,7.24,0,0,0-7.36,0,6.61,6.61,0,0,0-2.5,2.91,9.82,9.82,0,0,0-.87,4.27v.94a10,10,0,0,0,.93,4.09A6.62,6.62,0,0,0,18,20.19a7.27,7.27,0,0,0,7.3-.05,6.37,6.37,0,0,0,2.48-2.88A9.81,9.81,0,0,0,28.7,13v-.76A9.61,9.61,0,0,0,27.8,8.05Zm-3,5.08A7,7,0,0,1,24,16.8a2.69,2.69,0,0,1-3.72.89,2.73,2.73,0,0,1-.9-.89,7.27,7.27,0,0,1-.83-3.8V11.8c.1-3,1.12-4.5,3-4.49A2.59,2.59,0,0,1,23.9,8.6a7,7,0,0,1,.8,3.73Z"/><polygon class="cls-1" points="40.41 4.44 44.3 4.44 44.3 20.93 40.41 20.93 40.41 10.54 34.6 20.93 30.7 20.93 30.7 4.44 34.6 4.44 34.6 14.85 40.41 4.44"/><path class="cls-1" d="M41.64,0a3.27,3.27,0,0,1-1.11,2.52,4.45,4.45,0,0,1-3,1,4.41,4.41,0,0,1-3-1A3.17,3.17,0,0,1,33.43,0H36a1.34,1.34,0,0,0,.41,1,1.65,1.65,0,0,0,1.15.38A1.64,1.64,0,0,0,38.68,1a1.44,1.44,0,0,0,.4-1Z"/><polygon class="cls-1" points="59.81 20.93 55.94 20.93 55.94 14.05 50.2 14.05 50.2 20.93 46.3 20.93 46.3 4.44 50.2 4.44 50.2 10.98 55.94 10.98 55.94 4.44 59.81 4.44 59.81 20.93"/><path class="cls-1" d="M71.41,4.44H67.74L61.82,20.93H66l.93-3h5.34l.94,3h4.19ZM67.84,14.78l1.73-5.71,1.75,5.71Z"/><path class="cls-1" d="M13.53,37.44a6,6,0,0,1-.92,3,5.52,5.52,0,0,1-2.33,2,7.83,7.83,0,0,1-3.43.72,6.29,6.29,0,0,1-5-2.1,8.87,8.87,0,0,1-1.83-6v-.82A10.13,10.13,0,0,1,.85,30a6.36,6.36,0,0,1,2.38-2.8,6.55,6.55,0,0,1,3.6-1,6.9,6.9,0,0,1,4.73,1.58,6.4,6.4,0,0,1,2,4.36H9.67A3,3,0,0,0,8.93,30a3,3,0,0,0-2.13-.61,2.32,2.32,0,0,0-2.14,1.1A7.51,7.51,0,0,0,4,34v1.13A8.19,8.19,0,0,0,4.6,39a2.39,2.39,0,0,0,2.25,1.13,3,3,0,0,0,2-.64,2.83,2.83,0,0,0,.75-2Z"/><path class="cls-1" d="M24.18,26.53H20.51L14.58,43h4.16l.93-3H25L26,43h4.18ZM20.61,36.87l1.73-5.72,1.74,5.72Z"/><polygon class="cls-1" points="44.22 43.02 40.35 43.02 40.35 36.14 34.6 36.14 34.6 43.02 30.7 43.02 30.7 26.54 34.6 26.54 34.6 33.07 40.35 33.07 40.35 26.54 44.22 26.54 44.22 43.02"/><polygon class="cls-1" points="52.03 36.49 50.2 36.49 50.2 43.02 46.3 43.02 46.3 26.54 50.2 26.54 50.2 32.91 51.7 32.91 54.8 26.54 59.52 26.54 55.09 34.14 60.08 43.02 55.47 43.02 52.03 36.49"/><polygon class="cls-1" points="61.81 26.54 65.69 26.54 65.69 39.97 71.5 39.97 71.5 26.54 75.42 26.54 75.42 40 77.88 40 77.67 47 74 47 74 43.02 61.81 43.02 61.81 26.54"/><polygon class="cls-1" points="89.16 26.54 93.05 26.54 93.05 43.02 89.16 43.02 89.16 32.63 83.36 43.02 79.46 43.02 79.46 26.54 83.36 26.54 83.36 36.94 89.16 26.54"/><polygon class="cls-1" points="104.75 26.54 108.64 26.54 108.64 43.02 104.75 43.02 104.75 32.63 98.94 43.02 95.05 43.02 95.05 26.54 98.94 26.54 98.94 36.94 104.75 26.54"/><path class="cls-2" d="M93.87,22c-.07-.23-.19-.26-.4-.24-.69.08-1.38.16-2,.21-.43,0-.69.12-.5.63a1.61,1.61,0,0,1,0,.69,1.1,1.1,0,0,1-1,1.15h-.18a6.23,6.23,0,0,1-1.22-.12c-.41-.06-.48-.22-.37-.63a13.71,13.71,0,0,0,.36-5.41c0-.28-.11-.4-.44-.35-.89.14-1.8.24-2.7.33-.27,0-.32.1-.27.36a11.47,11.47,0,0,1,0,3.31c-.17,1.21-.17,1.21-1.24.73l-2.66-1.2a.77.77,0,0,1-.44-.33,2.53,2.53,0,0,0,.42-.31,7,7,0,0,0,1.87-3.33,4,4,0,0,0-2.69-5l-.09,0a4.54,4.54,0,0,0-.53-.12,6.8,6.8,0,0,0-6.17,2.17,4.16,4.16,0,0,0-.36,5.23,6.51,6.51,0,0,0,2.11,2c.37.23.44.35.06.67a5.52,5.52,0,0,0-2,3.38A5,5,0,0,0,79,31.47a10.06,10.06,0,0,0,7.35-4.06.57.57,0,0,1,.77-.16,8.21,8.21,0,0,0,3.48.36,3.83,3.83,0,0,0,3.51-3.25A6.35,6.35,0,0,0,93.87,22ZM76.11,16.5a2.23,2.23,0,0,1,2-1.27,1.86,1.86,0,0,1,1.81,1.91h0a1.61,1.61,0,0,1-.06.44,4.39,4.39,0,0,1-1.51,2.22c-.12.12-.22.09-.34,0a8.44,8.44,0,0,1-1.37-1A2.1,2.1,0,0,1,76.11,16.5Zm7.23,9.57a5.71,5.71,0,0,1-3.87,2.08,2.15,2.15,0,0,1-2.39-1.86A2.07,2.07,0,0,1,77.31,25a4.25,4.25,0,0,1,1.09-1.4.3.3,0,0,1,.43,0h0l4.42,2.13C83.44,25.8,83.5,25.87,83.34,26.07Z"/></svg>