<svg id="Слой_1" data-name="Слой 1" xmlns="http://www.w3.org/2000/svg" viewBox="0 0 138.23 45"><defs><style>.cls-1{fill:#595a5c;}.cls-2{fill:#c33;}</style></defs><path class="cls-1" d="M15.81,14.32l1-5.81,1.27-7.29c.06-.34.12-.67.18-1A.17.17,0,0,1,18.48,0h3.66a1.51,1.51,0,0,1-.08.67c-1,4.57-1.87,9.16-2.81,13.73-.39,1.91-.78,3.81-1.16,5.72-.07.32-.07.32-.37.32H14.47c-.37,0-.38,0-.45-.38-.59-2.56-1.17-5.13-1.73-7.73L11.13,7.2A.15.15,0,0,0,11,7l-.26,1.2L8.11,20.06a.65.65,0,0,0,0,.2c0,.17-.1.22-.25.22H4.46c-.35,0-.35,0-.42-.35Q2.95,14.72,1.83,9.31L0,.41A.53.53,0,0,1,0,.06.37.37,0,0,1,.26,0H3.49c.32,0,.33,0,.39.34.27,1.52.53,3.08.8,4.56q.81,4.68,1.63,9.36c.11-.06.11-.18.13-.27Q7.91,7.19,9.37.41C9.44,0,9.45,0,9.81,0h2.53c.39,0,.4,0,.49.39l1.33,6.25,1.56,7.4a.9.9,0,0,0,.07.27Z"/><path class="cls-1" d="M43.52,10.21V.48c0-.52,0-.46.43-.46h6.82a8,8,0,0,1,3.34.67,5.32,5.32,0,0,1,3.25,4.76,8.31,8.31,0,0,1-.18,2.77,5.39,5.39,0,0,1-2.62,3.46l-.18.09c-.3.17-.3.17-.15.48L58,19.86c.06.13.12.27.17.41s0,.21-.13.21H54.3a.44.44,0,0,1-.48-.34c-1.06-2.26-2.13-4.51-3.18-6.76a.52.52,0,0,0-.55-.37H47.73c-.32,0-.33,0-.33.36v6.81c0,.3,0,.3-.27.3H43.92c-.43,0-.4,0-.4-.44Zm5.82-6.76H47.68c-.29,0-.29,0-.29.32V9.25c0,.31,0,.32.3.32h2.88a3.94,3.94,0,0,0,.84-.1,2.56,2.56,0,0,0,2.07-2.19,3.73,3.73,0,0,0,0-1.56,2.51,2.51,0,0,0-1.92-2.13,3.47,3.47,0,0,0-1-.13Z"/><path class="cls-1" d="M24.09,20.44a.45.45,0,0,1,.07-.39L30.89.36C31,0,31,0,31.37,0h2.88c.49,0,.39-.08.56.42l3.28,9.64,3.41,10a2.25,2.25,0,0,1,.09.35.39.39,0,0,1-.3,0H37.83c-.4,0-.32,0-.44-.36-.37-1.16-.73-2.33-1.09-3.5-.11-.34-.11-.34-.45-.34H29.78c-.35,0-.35,0-.46.35-.35,1.16-.72,2.33-1.07,3.51-.11.34-.11.34-.44.34H24.39A.44.44,0,0,1,24.09,20.44ZM32.83,5.32a.67.67,0,0,0-.15.33l-2.06,6.74a.49.49,0,0,1-.07.19c0,.17,0,.28.17.26h4.14a.42.42,0,0,0,.32-.08Z"/><path class="cls-1" d="M38.41,31.76a1.75,1.75,0,0,0,0,.56v12c0,.29,0,.29-.29.29H34.84c-.26,0-.26,0-.27-.28v-19c0-.5,0-.47.44-.47h3a.54.54,0,0,1,.54.34q3.38,6,6.77,12.09l.25.43a.94.94,0,0,0,.05-.44V25.33c0-.58-.06-.5.48-.5h3c.28,0,.28,0,.29.3v19c0,.53.06.49-.47.49H46a.58.58,0,0,1-.59-.34q-3.36-6-6.75-12.09A3.48,3.48,0,0,1,38.41,31.76Z"/><path class="cls-1" d="M105.79,34.78a14.2,14.2,0,0,1-.38,3.9,9.35,9.35,0,0,1-1.47,3.26,6.78,6.78,0,0,1-4,2.74,7.38,7.38,0,0,1-4.75-.35,7.53,7.53,0,0,1-4.07-4.48,11.81,11.81,0,0,1-.74-3.68,21.43,21.43,0,0,1,.08-3.84,10,10,0,0,1,2.12-5.2,6.71,6.71,0,0,1,4.3-2.44,7.19,7.19,0,0,1,8.11,4.8,12.29,12.29,0,0,1,.79,4.33A7.4,7.4,0,0,1,105.79,34.78Zm-11.66-.1a13.68,13.68,0,0,0,.34,3.5,5.61,5.61,0,0,0,1.21,2.38,3.37,3.37,0,0,0,5-.23,3.59,3.59,0,0,0,.37-.5,7.43,7.43,0,0,0,.86-2.92,22.37,22.37,0,0,0,0-4.33,7.78,7.78,0,0,0-.6-2.39,3.47,3.47,0,0,0-4.7-1.89A3.69,3.69,0,0,0,95,29.94a6.21,6.21,0,0,0-.48,1.33,14.5,14.5,0,0,0-.32,3.41Z"/><path class="cls-1" d="M32.71,44.61H29.14c-.38,0-.38,0-.48-.37-.34-1.14-.7-2.26-1.05-3.39-.09-.3-.09-.3-.38-.3H21.28a.35.35,0,0,0-.39.31h0c-.35,1.13-.71,2.28-1,3.42-.1.32-.1.32-.4.32H15.8a.63.63,0,0,1,.07-.37l6.51-19c.15-.44.06-.38.51-.38h2.67c.47,0,.39-.06.55.39q1.76,5.07,3.49,10.15l3,8.83A.65.65,0,0,1,32.71,44.61ZM24.26,30h-.09c-.72,2.38-1.46,4.77-2.18,7.18h4.5Z"/><path class="cls-1" d="M66.14,31.58H62.63c-.18,0-.26,0-.28-.27a6,6,0,0,0-.2-1.2A2.75,2.75,0,0,0,60.06,28,4.65,4.65,0,0,0,58,28a3.13,3.13,0,0,0-2.22,2,8.16,8.16,0,0,0-.58,2.77,32.87,32.87,0,0,0,0,4,9.37,9.37,0,0,0,.43,2.35,3.21,3.21,0,0,0,3.6,2.45,4.86,4.86,0,0,0,1.31-.28A2.63,2.63,0,0,0,62,39.67a4.87,4.87,0,0,0,.3-1.18,3.4,3.4,0,0,1,.06-.46,1.63,1.63,0,0,1,.54,0h2.79c.38,0,.39,0,.35.42a6.66,6.66,0,0,1-4.48,6,8,8,0,0,1-5.75-.13,6.68,6.68,0,0,1-3.44-3.42,11.14,11.14,0,0,1-1.08-4.17,27,27,0,0,1,0-4,10.36,10.36,0,0,1,1.92-5.54,6.48,6.48,0,0,1,4.33-2.57A8.16,8.16,0,0,1,61.8,25a6.62,6.62,0,0,1,4,4.77A10.6,10.6,0,0,1,66.14,31.58Z"/><path class="cls-1" d="M73.48,36.35v-7.8c0-.46,0-.41-.37-.41H68.24c-.17,0-.24-.05-.24-.25V25.07c0-.2.07-.28.27-.25H82.35c.47,0,.47-.1.47.49v2.36c0,.56,0,.49-.44.49H77.73a.81.81,0,0,1-.22,0c-.17,0-.26,0-.25.25V44.3c0,.28,0,.29-.26.29H73.76c-.26,0-.27,0-.27-.27v-8Z"/><path class="cls-1" d="M88.44,34.7v9.62c0,.29,0,.29-.3.29H85c-.26,0-.26,0-.27-.28v-19c0-.54-.05-.5.47-.5h3c.33,0,.34,0,.34.34V34.7Z"/><path class="cls-1" d="M118.68,37.73V25.27c0-.5,0-.44.43-.44h3c.29,0,.29,0,.3.29v19.2c0,.29,0,.29-.3.29H119a.52.52,0,0,1-.52-.32q-2.89-5.22-5.82-10.43l-1.19-2.11a.83.83,0,0,0-.06.44v12c0,.5,0,.42-.39.42h-3c-.41,0-.37,0-.37-.4V25a.14.14,0,0,1,.11-.14H111a.52.52,0,0,1,.55.33q3.09,5.54,6.2,11.07c.22.42.47.83.67,1.23A.66.66,0,0,0,118.68,37.73Z"/><path class="cls-1" d="M126.19,38.39h1.6c.19,0,.25,0,.27.26a4.61,4.61,0,0,0,.11.82,2.54,2.54,0,0,0,1.57,1.87,4.84,4.84,0,0,0,3.14.15A1.92,1.92,0,0,0,134.39,40a2.27,2.27,0,0,0-.87-2.44,9.21,9.21,0,0,0-1.75-.87c-.88-.35-1.79-.64-2.65-1a9.43,9.43,0,0,1-2.87-2,5.28,5.28,0,0,1-.06-7.12h0a5.65,5.65,0,0,1,.83-.71,6.94,6.94,0,0,1,3-1.17,8.6,8.6,0,0,1,3.94.21,5.8,5.8,0,0,1,3.67,3,6.13,6.13,0,0,1,.62,2.53c0,.27,0,.27-.27.28h-3.23c-.19,0-.26-.07-.27-.27a3.08,3.08,0,0,0,0-.43,2.46,2.46,0,0,0-1.86-2.06,4.25,4.25,0,0,0-2.32.06,2.4,2.4,0,0,0-1.15.77,2.09,2.09,0,0,0,.06,2.63,5.22,5.22,0,0,0,1.35.9,24.82,24.82,0,0,0,2.48.95,12.24,12.24,0,0,1,2.85,1.58,5.69,5.69,0,0,1,1.57,7.54,4.76,4.76,0,0,1-.31.47,5,5,0,0,1-2.65,1.74,9.13,9.13,0,0,1-6.75-.46,5.85,5.85,0,0,1-3.06-3.35,7.08,7.08,0,0,1-.38-2.09c0-.17.07-.2.2-.2Z"/><path class="cls-1" d="M1.89,38.39H3.34c.47,0,.42,0,.44.42a3.74,3.74,0,0,0,.19.94,2.38,2.38,0,0,0,1.24,1.46,4.55,4.55,0,0,0,3.65.18,2.21,2.21,0,0,0,1.2-2.78,2.53,2.53,0,0,0-.36-.67,2.79,2.79,0,0,0-.87-.66,13.22,13.22,0,0,0-2.15-.94,18.43,18.43,0,0,1-3-1.27,7.4,7.4,0,0,1-2-1.69,5.25,5.25,0,0,1,.49-7.08h0L2.56,26A7,7,0,0,1,5.61,24.7a8.59,8.59,0,0,1,4.09.21,5.82,5.82,0,0,1,3.58,3,6.42,6.42,0,0,1,.66,2.62c0,.17-.06.23-.22.23H10.35c-.14,0-.21-.05-.21-.21A2.39,2.39,0,0,0,8.33,28a4,4,0,0,0-2.63.11,2.11,2.11,0,0,0-1.3,1.35,2,2,0,0,0,.72,2.2A8.24,8.24,0,0,0,7.3,32.76a23.82,23.82,0,0,1,2.79,1.11,8,8,0,0,1,2.65,2,5.29,5.29,0,0,1,1.14,3,6.71,6.71,0,0,1-.12,1.9,4.62,4.62,0,0,1-1.86,2.86,6.28,6.28,0,0,1-2.57,1.08,9.34,9.34,0,0,1-5.13-.34,6.59,6.59,0,0,1-3.05-2.2A6.14,6.14,0,0,1,0,38.78c0-.38,0-.38.33-.38Z"/><path class="cls-2" d="M76.2,21.21C76.13,21,76,21,75.8,21c-.69.08-1.38.16-2,.21-.43,0-.69.12-.5.63a1.61,1.61,0,0,1,0,.69,1.1,1.1,0,0,1-1,1.15h-.18a6.31,6.31,0,0,1-1.22-.12c-.41-.06-.48-.22-.37-.63a13.71,13.71,0,0,0,.36-5.41c0-.28-.11-.4-.44-.35-.89.14-1.8.24-2.7.33-.27,0-.32.1-.27.36a11.47,11.47,0,0,1,0,3.31c-.17,1.21-.17,1.21-1.24.73l-2.66-1.2a.77.77,0,0,1-.44-.33,2.53,2.53,0,0,0,.42-.31,6.92,6.92,0,0,0,1.87-3.33,4,4,0,0,0-2.69-5l-.09,0a4.54,4.54,0,0,0-.53-.12A6.82,6.82,0,0,0,56,13.75,4.16,4.16,0,0,0,55.59,19a6.61,6.61,0,0,0,2.11,2c.37.23.44.35.06.67a5.52,5.52,0,0,0-2,3.38,5,5,0,0,0,5.59,5.7,10,10,0,0,0,7.35-4.06.57.57,0,0,1,.77-.16,8.21,8.21,0,0,0,3.48.36,3.83,3.83,0,0,0,3.51-3.25A6.35,6.35,0,0,0,76.2,21.21ZM58.44,15.76a2.25,2.25,0,0,1,2-1.27,1.86,1.86,0,0,1,1.81,1.91h0a1.61,1.61,0,0,1-.06.44,4.39,4.39,0,0,1-1.51,2.22c-.12.12-.22.09-.34,0a8.28,8.28,0,0,1-1.37-1A2.1,2.1,0,0,1,58.44,15.76Zm7.23,9.57a5.67,5.67,0,0,1-3.87,2.08,2.15,2.15,0,0,1-2.39-1.86,2.09,2.09,0,0,1,.23-1.27,4.49,4.49,0,0,1,1.09-1.4.3.3,0,0,1,.43,0h0L65.58,25C65.77,25.06,65.83,25.13,65.67,25.33Z"/></svg>