<svg width="100" height="58" viewBox="0 0 100 58" fill="none" xmlns="http://www.w3.org/2000/svg">
<path d="M8.40349 15.2791H3.91291L3.88889 12.8057H7.65906C8.32341 12.8057 8.86775 12.7216 9.29201 12.5536C9.71628 12.3774 10.0324 12.1253 10.2405 11.7971C10.4567 11.4609 10.5647 11.0527 10.5647 10.5724C10.5647 10.0281 10.4607 9.58784 10.2526 9.25161C10.0524 8.91546 9.73627 8.67128 9.30398 8.51923C8.8798 8.3671 8.33144 8.29112 7.65906 8.29112H5.16163V22.9515H1.55955V5.46946H7.65906C8.67562 5.46946 9.58414 5.56551 10.3846 5.75762C11.1931 5.94973 11.8775 6.2419 12.4378 6.63412C12.9982 7.02635 13.4264 7.52264 13.7226 8.12298C14.0187 8.7153 14.1668 9.41972 14.1668 10.2362C14.1668 10.9566 14.0028 11.621 13.6746 12.2293C13.3543 12.8377 12.846 13.334 12.1496 13.7182C11.4613 14.1024 10.5607 14.3146 9.44808 14.3546L8.40349 15.2791ZM8.24742 22.9515H2.92834L4.33315 20.1419H8.24742C8.8798 20.1419 9.39603 20.0419 9.79628 19.8418C10.1965 19.6336 10.4927 19.3535 10.6848 19.0013C10.8769 18.6491 10.973 18.2448 10.973 17.7886C10.973 17.2763 10.8849 16.832 10.7088 16.4558C10.5407 16.0796 10.2686 15.7914 9.89234 15.5913C9.51611 15.3832 9.01988 15.2791 8.40349 15.2791H4.9335L4.9575 12.8057H9.27996L10.1085 13.7782C11.1731 13.7623 12.0296 13.9504 12.678 14.3426C13.3343 14.7268 13.8106 15.2271 14.1068 15.8434C14.4109 16.4598 14.5631 17.1201 14.5631 17.8246C14.5631 18.9452 14.3189 19.8897 13.8306 20.6582C13.3423 21.4187 12.6259 21.991 11.6814 22.3752C10.7449 22.7594 9.60021 22.9515 8.24742 22.9515ZM21.0948 5.46946V22.9515H17.5047V5.46946H21.0948ZM27.9387 17.2842L34.9628 5.46946H38.5649V22.9515H34.9628V11.1367L27.9387 22.9515H24.3367V5.46946H27.9387V17.2842ZM33.1978 0.882812H35.6592C35.6592 1.57121 35.4871 2.18357 35.1429 2.71987C34.8067 3.24817 34.3264 3.66442 33.7021 3.96859C33.0777 4.26476 32.3413 4.41285 31.4928 4.41285C30.2041 4.41285 29.1835 4.08466 28.431 3.42828C27.6866 2.7719 27.3144 1.92341 27.3144 0.882812H29.7638C29.7638 1.29905 29.8918 1.67127 30.148 1.99946C30.4122 2.32765 30.8605 2.49174 31.4928 2.49174C32.1172 2.49174 32.5574 2.32765 32.8136 1.99946C33.0697 1.67127 33.1978 1.29905 33.1978 0.882812ZM53.3454 12.5896V15.3991H44.2201V12.5896H53.3454ZM45.2887 5.46946V22.9515H41.6867V5.46946H45.2887ZM55.9149 5.46946V22.9515H52.3248V5.46946H55.9149ZM66.3729 8.45915L61.6182 22.9515H57.7879L64.2836 5.46946H66.7211L66.3729 8.45915ZM70.3232 22.9515L65.5564 8.45915L65.1722 5.46946H67.6336L74.1654 22.9515H70.3232ZM70.107 16.4437V19.2654H60.8737V16.4437H70.107ZM11.6934 45.8407H15.2835C15.2114 47.0174 14.8873 48.062 14.3109 48.9745C13.7426 49.887 12.9461 50.5995 11.9215 51.1118C10.905 51.6241 9.68021 51.8802 8.24742 51.8802C7.12676 51.8802 6.12218 51.6881 5.23367 51.3038C4.34515 50.9116 3.58472 50.3513 2.95236 49.6229C2.328 48.8945 1.85172 48.014 1.52353 46.9814C1.19534 45.9487 1.03125 44.7921 1.03125 43.5114V42.2987C1.03125 41.0179 1.19934 39.8613 1.53554 38.8287C1.87973 37.7881 2.36801 36.9036 3.00038 36.1751C3.64075 35.4467 4.40519 34.8864 5.2937 34.4941C6.18222 34.1019 7.17478 33.9059 8.27144 33.9059C9.72824 33.9059 10.9569 34.17 11.9575 34.6983C12.9661 35.2266 13.7466 35.9551 14.2989 36.8836C14.8592 37.8121 15.1954 38.8687 15.3075 40.0534H11.7054C11.6654 39.349 11.5253 38.7526 11.2851 38.2643C11.045 37.7681 10.6808 37.3959 10.1925 37.1477C9.71226 36.8915 9.07185 36.7635 8.27144 36.7635C7.67107 36.7635 7.14677 36.8755 6.69851 37.0996C6.25025 37.3238 5.87404 37.664 5.56986 38.1203C5.26568 38.5765 5.03755 39.1528 4.88546 39.8492C4.74138 40.5377 4.66934 41.3461 4.66934 42.2746V43.5114C4.66934 44.4159 4.73738 45.2123 4.87346 45.9007C5.00954 46.5811 5.21766 47.1574 5.49782 47.6297C5.78599 48.094 6.1542 48.4462 6.60246 48.6864C7.05872 48.9185 7.60704 49.0346 8.24742 49.0346C8.9998 49.0346 9.62021 48.9145 10.1085 48.6743C10.5968 48.4342 10.969 48.078 11.2251 47.6057C11.4893 47.1335 11.6454 46.5451 11.6934 45.8407ZM24.7569 37.1477L20.0022 51.6401H16.1719L22.6677 34.158H25.1051L24.7569 37.1477ZM28.7072 51.6401L23.9405 37.1477L23.5562 34.158H26.0177L32.5494 51.6401H28.7072ZM28.491 45.1323V47.9539H19.2578V45.1323H28.491ZM45.8291 41.2781V44.0877H36.7038V41.2781H45.8291ZM37.7724 34.158V51.6401H34.1704V34.158H37.7724ZM48.3986 34.158V51.6401H44.8085V34.158H48.3986ZM55.1464 34.158V51.6401H51.5443V34.158H55.1464ZM65.4483 34.158L58.7485 44.4239H54.3419L53.8857 41.2181H56.8274L61.0778 34.158H65.4483ZM61.7382 51.6401L56.8394 43.8236L59.3368 41.2541L66.0127 51.6401H61.7382ZM83.879 48.8424L83.6511 55.8545H80.2889V51.6401H78.86V48.8424H83.879ZM67.2494 51.6401V34.158H70.8395V48.8305H77.8755V34.158H81.4896V51.6401H67.2494ZM89.9183 34.158V51.6401H86.3282V34.158H89.9183ZM97.1224 34.158V51.6401H93.5323V34.158H97.1224ZM90.7109 31.4564C90.7109 31.0402 90.8708 30.688 91.1913 30.3998C91.5036 30.1037 91.8913 29.9555 92.356 29.9555C92.8364 29.9555 93.2323 30.1037 93.5446 30.3998C93.8568 30.688 94.0126 31.0402 94.0126 31.4564C94.0126 31.8727 93.8568 32.2249 93.5446 32.513C93.2323 32.8012 92.8364 32.9453 92.356 32.9453C91.8913 32.9453 91.5036 32.8012 91.1913 32.513C90.8708 32.2249 90.7109 31.8727 90.7109 31.4564ZM96.606 31.4684C96.606 31.0441 96.7626 30.688 97.0749 30.3998C97.3864 30.1117 97.779 29.9676 98.2511 29.9676C98.7232 29.9676 99.1159 30.1117 99.4282 30.3998C99.7478 30.688 99.9085 31.0441 99.9085 31.4684C99.9085 31.8846 99.7478 32.2369 99.4282 32.5251C99.1159 32.8052 98.7232 32.9453 98.2511 32.9453C97.779 32.9453 97.3864 32.8052 97.0749 32.5251C96.7626 32.2369 96.606 31.8846 96.606 31.4684Z" fill="#58595B"/>
<path d="M78.6794 19.3349L82.0416 17.1616C82.5375 16.8334 82.8695 16.5173 83.0375 16.2131C83.2063 15.9089 83.29 15.5687 83.29 15.1925C83.29 14.8163 83.1498 14.4681 82.8695 14.1479C82.59 13.8198 82.1973 13.6557 81.6932 13.6557C81.3329 13.6557 81.0287 13.7397 80.7806 13.9078C80.5325 14.0679 80.3444 14.284 80.2163 14.5562C80.0962 14.8283 80.0362 15.1325 80.0362 15.4687C80.0362 15.8289 80.1323 16.1971 80.3244 16.5733C80.5164 16.9415 80.7766 17.3338 81.1048 17.75C81.433 18.1582 81.7972 18.6025 82.1973 19.0827L90.4465 28.6883H86.5203L79.796 20.9078C79.2277 20.2034 78.7314 19.559 78.3072 18.9747C77.8829 18.3824 77.5508 17.806 77.3106 17.2457C77.0705 16.6853 76.9504 16.109 76.9504 15.5167C76.9504 14.6042 77.1465 13.8077 77.5387 13.1273C77.9309 12.4389 78.4833 11.9066 79.1957 11.5304C79.9081 11.1462 80.7445 10.9541 81.7051 10.9541C82.6096 10.9541 83.3941 11.1422 84.0588 11.5184C84.7227 11.8866 85.235 12.3749 85.5957 12.9832C85.9637 13.5916 86.1473 14.26 86.1473 14.9884C86.1473 15.5327 86.0473 16.037 85.8473 16.5012C85.6473 16.9575 85.3711 17.3818 85.0186 17.774C84.667 18.1582 84.2629 18.5144 83.8064 18.8426L79.9761 21.5682C79.68 21.8403 79.4559 22.1085 79.3037 22.3726C79.1517 22.6368 79.0476 22.8889 78.9916 23.1291C78.9355 23.3612 78.9075 23.5853 78.9075 23.8015C78.9075 24.2657 79.0076 24.682 79.2077 25.0502C79.4078 25.4184 79.688 25.7066 80.0482 25.9147C80.4084 26.1228 80.8286 26.2269 81.3089 26.2269C81.9654 26.2269 82.6014 26.0828 83.2178 25.7946C83.8342 25.5065 84.3867 25.0942 84.8752 24.5579C85.3629 24.0136 85.7514 23.3692 86.04 22.6248C86.3277 21.8803 86.4719 21.0599 86.4719 20.1634H89.4014C89.4014 21.0599 89.3137 21.9124 89.1375 22.7208C88.9613 23.5213 88.6768 24.2657 88.285 24.9541C87.8924 25.6345 87.3727 26.2389 86.7244 26.7671C86.676 26.8072 86.608 26.8672 86.5203 26.9473C86.44 27.0193 86.3719 27.0753 86.3162 27.1154C85.5473 27.7317 84.7465 28.192 83.9146 28.4961C83.0818 28.7924 82.1531 28.9404 81.1288 28.9404C79.9601 28.9404 78.9476 28.7283 78.091 28.304C77.2426 27.8798 76.5862 27.2955 76.1219 26.5511C75.6657 25.8066 75.4375 24.9541 75.4375 23.9936C75.4375 23.2892 75.5736 22.6768 75.8458 22.1565C76.1259 21.6282 76.5101 21.1399 76.9984 20.6916C77.4867 20.2434 78.047 19.7912 78.6794 19.3349Z" fill="#CC3333"/>
</svg>
